<?xml version="1.0" standalone="no"?>
<!DOCTYPE svg PUBLIC "-//W3C//DTD SVG 20010904//EN"
 "http://www.w3.org/TR/2001/REC-SVG-20010904/DTD/svg10.dtd">
<svg version="1.0" xmlns="http://www.w3.org/2000/svg"
 width="617.000000pt" height="327.000000pt" viewBox="0 0 617.000000 327.000000"
 preserveAspectRatio="xMidYMid meet">

<g transform="translate(0.000000,327.000000) scale(0.100000,-0.100000)"
fill="#000000" stroke="none">
<path d="M0 1635 l0 -1635 3085 0 3085 0 0 1635 0 1635 -3085 0 -3085 0 0
-1635z m2758 1521 c9 -5 12 -134 12 -517 l0 -509 261 0 c286 0 318 -5 434 -63
74 -37 186 -148 238 -237 51 -88 94 -203 125 -335 24 -101 26 -128 27 -330 0
-250 -14 -351 -70 -522 -91 -273 -210 -416 -411 -493 -54 -21 -80 -23 -309
-28 -138 -2 -304 -1 -368 3 l-117 7 0 176 c0 98 3 269 7 381 l6 204 85 -7 c47
-3 88 -8 90 -11 3 -3 9 -121 15 -262 5 -142 11 -259 12 -261 2 -2 124 -6 272
-9 l269 -6 62 58 c111 103 181 235 217 406 43 205 38 591 -9 732 -65 195 -171
331 -281 362 -59 17 -277 35 -416 35 -70 0 -100 -4 -108 -14 -10 -12 -30 -445
-31 -678 l0 -68 -99 0 -99 0 -6 188 c-3 103 -9 312 -12 465 l-6 277 -398 0
-397 0 -6 -127 c-4 -71 -10 -280 -13 -465 l-7 -338 -98 0 -99 0 0 730 0 730
99 0 98 0 7 -112 c3 -62 9 -132 12 -155 l6 -43 399 0 399 0 1 233 c1 354 12
581 29 602 12 14 27 17 90 13 42 -2 82 -8 88 -12z m-1748 -26 c105 -30 185
-75 255 -145 99 -99 135 -182 149 -347 l5 -68 -92 0 -92 0 -29 84 c-56 167
-110 228 -233 266 -293 91 -542 -63 -508 -314 20 -153 110 -229 400 -335 395
-145 444 -171 512 -268 113 -161 118 -424 11 -610 -61 -109 -177 -212 -295
-261 -67 -29 -160 -41 -253 -33 l-75 6 -3 79 c-2 44 1 83 6 88 4 4 49 15 98
24 178 31 242 60 302 139 83 109 112 272 65 361 -48 89 -136 140 -419 242
-213 77 -368 155 -431 219 -129 128 -172 389 -95 573 73 173 214 287 395 320
79 14 241 4 327 -20z m3780 -1100 l0 -101 -416 3 c-477 3 -444 -4 -444 100 0
45 5 63 20 78 19 19 33 20 430 20 l410 0 0 -100z m291 59 c17 -26 123 -390
354 -1209 79 -283 104 -360 115 -360 23 0 41 52 130 380 85 314 108 381 136
407 29 26 83 43 142 43 41 0 42 -1 42 -32 0 -49 -28 -153 -180 -683 -124 -432
-148 -502 -173 -509 -29 -8 -155 -6 -187 3 -32 8 -40 32 -215 641 -201 698
-282 1000 -324 1207 -22 107 -18 130 26 135 47 5 124 -8 134 -23z m-493 -829
l182 0 0 -85 0 -85 -420 0 -420 0 0 74 c0 49 4 78 13 83 22 14 148 21 307 17
85 -2 237 -4 338 -4z m241 -936 c2 -2 6 -46 9 -97 l5 -94 -299 -6 c-319 -6
-568 0 -596 15 -21 10 -23 58 -7 141 l12 56 436 -6 c240 -3 438 -7 440 -9z"/>
</g>
</svg>
